<svg width="1616" height="736" viewBox="0 0 1616 736" fill="none" xmlns="http://www.w3.org/2000/svg">
<rect width="1616" height="736" fill="white"/>
<path d="M537.952 232.298V247H532.038V213.545H537.821V226.173H538.115C538.703 224.757 539.612 223.641 540.843 222.824C542.085 221.996 543.664 221.582 545.58 221.582C547.323 221.582 548.842 221.947 550.138 222.677C551.434 223.406 552.436 224.474 553.143 225.879C553.862 227.283 554.222 228.999 554.222 231.024V247H548.308V231.939C548.308 230.251 547.873 228.939 547.001 228.002C546.141 227.055 544.932 226.581 543.375 226.581C542.33 226.581 541.393 226.81 540.565 227.267C539.749 227.714 539.106 228.362 538.638 229.211C538.18 230.06 537.952 231.089 537.952 232.298ZM571.357 247.49C568.842 247.49 566.669 246.967 564.839 245.922C563.021 244.866 561.621 243.374 560.641 241.446C559.661 239.508 559.171 237.226 559.171 234.602C559.171 232.021 559.661 229.755 560.641 227.806C561.632 225.846 563.015 224.321 564.79 223.232C566.566 222.132 568.651 221.582 571.047 221.582C572.593 221.582 574.053 221.833 575.425 222.334C576.808 222.824 578.027 223.586 579.084 224.621C580.151 225.655 580.99 226.973 581.599 228.574C582.209 230.164 582.514 232.059 582.514 234.259V236.072H561.948V232.086H576.846C576.835 230.953 576.59 229.946 576.111 229.064C575.632 228.171 574.962 227.469 574.102 226.957C573.252 226.445 572.261 226.189 571.129 226.189C569.92 226.189 568.858 226.483 567.943 227.071C567.028 227.648 566.315 228.411 565.803 229.358C565.302 230.295 565.046 231.324 565.036 232.445V235.925C565.036 237.384 565.302 238.636 565.836 239.682C566.37 240.716 567.116 241.511 568.074 242.067C569.032 242.611 570.154 242.884 571.439 242.884C572.299 242.884 573.078 242.764 573.775 242.524C574.472 242.274 575.076 241.909 575.588 241.43C576.1 240.951 576.487 240.357 576.748 239.649L582.269 240.27C581.921 241.729 581.256 243.003 580.276 244.092C579.307 245.17 578.066 246.009 576.552 246.608C575.038 247.196 573.307 247.49 571.357 247.49ZM592.907 239.126L592.891 231.988H593.839L602.856 221.909H609.765L598.674 234.259H597.449L592.907 239.126ZM587.517 247V213.545H593.43V247H587.517ZM603.264 247L595.096 235.582L599.082 231.416L610.337 247H603.264ZM623.618 247.49C621.167 247.49 619.044 246.951 617.247 245.873C615.45 244.795 614.056 243.286 613.065 241.348C612.085 239.41 611.595 237.144 611.595 234.553C611.595 231.961 612.085 229.69 613.065 227.741C614.056 225.791 615.45 224.278 617.247 223.2C619.044 222.121 621.167 221.582 623.618 221.582C626.068 221.582 628.192 222.121 629.988 223.2C631.785 224.278 633.174 225.791 634.154 227.741C635.145 229.69 635.64 231.961 635.64 234.553C635.64 237.144 635.145 239.41 634.154 241.348C633.174 243.286 631.785 244.795 629.988 245.873C628.192 246.951 626.068 247.49 623.618 247.49ZM623.65 242.753C624.979 242.753 626.09 242.388 626.983 241.658C627.876 240.918 628.54 239.927 628.976 238.685C629.422 237.444 629.645 236.061 629.645 234.536C629.645 233.001 629.422 231.612 628.976 230.371C628.54 229.118 627.876 228.122 626.983 227.381C626.09 226.641 624.979 226.271 623.65 226.271C622.289 226.271 621.157 226.641 620.253 227.381C619.36 228.122 618.69 229.118 618.243 230.371C617.808 231.612 617.59 233.001 617.59 234.536C617.59 236.061 617.808 237.444 618.243 238.685C618.69 239.927 619.36 240.918 620.253 241.658C621.157 242.388 622.289 242.753 623.65 242.753ZM640.659 247V221.909H646.393V226.091H646.654C647.112 224.643 647.896 223.526 649.007 222.742C650.128 221.947 651.408 221.55 652.846 221.55C653.172 221.55 653.537 221.566 653.94 221.599C654.354 221.621 654.697 221.659 654.969 221.713V227.153C654.719 227.066 654.321 226.989 653.777 226.924C653.243 226.848 652.726 226.81 652.225 226.81C651.147 226.81 650.177 227.044 649.317 227.512C648.468 227.969 647.798 228.607 647.308 229.423C646.818 230.24 646.573 231.182 646.573 232.249V247H640.659ZM678.729 228.541L673.338 229.129C673.186 228.585 672.919 228.073 672.538 227.594C672.167 227.115 671.666 226.728 671.035 226.434C670.403 226.14 669.63 225.993 668.715 225.993C667.485 225.993 666.45 226.26 665.612 226.793C664.784 227.327 664.375 228.018 664.386 228.868C664.375 229.598 664.642 230.191 665.187 230.648C665.742 231.106 666.657 231.482 667.931 231.776L672.211 232.69C674.585 233.202 676.349 234.013 677.504 235.124C678.669 236.235 679.257 237.689 679.268 239.486C679.257 241.065 678.794 242.459 677.879 243.668C676.975 244.866 675.718 245.802 674.106 246.477C672.494 247.152 670.643 247.49 668.552 247.49C665.481 247.49 663.009 246.848 661.136 245.562C659.263 244.267 658.146 242.464 657.787 240.156L663.553 239.6C663.815 240.733 664.37 241.588 665.219 242.165C666.069 242.742 667.174 243.031 668.536 243.031C669.94 243.031 671.067 242.742 671.917 242.165C672.777 241.588 673.207 240.874 673.207 240.025C673.207 239.306 672.93 238.713 672.374 238.244C671.83 237.776 670.98 237.417 669.826 237.166L665.546 236.268C663.139 235.767 661.359 234.923 660.205 233.736C659.05 232.538 658.478 231.024 658.489 229.195C658.478 227.648 658.898 226.309 659.747 225.176C660.607 224.033 661.8 223.151 663.325 222.53C664.86 221.898 666.63 221.582 668.634 221.582C671.574 221.582 673.888 222.209 675.576 223.461C677.275 224.713 678.326 226.407 678.729 228.541ZM689.159 213.545V216.878C689.159 217.836 688.974 218.833 688.603 219.867C688.244 220.891 687.748 221.871 687.117 222.808C686.485 223.733 685.766 224.528 684.961 225.192L682.216 223.412C682.815 222.508 683.338 221.533 683.784 220.488C684.231 219.432 684.454 218.239 684.454 216.911V213.545H689.159ZM716.304 256.932C714.18 256.932 712.356 256.643 710.831 256.066C709.307 255.5 708.082 254.737 707.156 253.779C706.23 252.821 705.588 251.759 705.229 250.594L710.554 249.303C710.793 249.793 711.142 250.278 711.599 250.757C712.057 251.247 712.672 251.65 713.445 251.966C714.229 252.293 715.215 252.456 716.402 252.456C718.079 252.456 719.467 252.048 720.567 251.231C721.667 250.425 722.217 249.096 722.217 247.245V242.491H721.923C721.618 243.101 721.172 243.728 720.584 244.37C720.006 245.013 719.239 245.552 718.28 245.987C717.333 246.423 716.14 246.641 714.703 246.641C712.775 246.641 711.028 246.189 709.459 245.285C707.902 244.37 706.661 243.009 705.735 241.201C704.82 239.382 704.363 237.106 704.363 234.373C704.363 231.618 704.82 229.293 705.735 227.398C706.661 225.492 707.907 224.049 709.476 223.069C711.044 222.078 712.792 221.582 714.719 221.582C716.189 221.582 717.398 221.833 718.346 222.334C719.304 222.824 720.066 223.417 720.633 224.114C721.199 224.8 721.629 225.448 721.923 226.058H722.25V221.909H728.081V247.408C728.081 249.554 727.57 251.329 726.546 252.734C725.522 254.138 724.123 255.189 722.348 255.886C720.573 256.583 718.558 256.932 716.304 256.932ZM716.353 242.001C717.605 242.001 718.672 241.696 719.555 241.087C720.437 240.477 721.106 239.6 721.564 238.457C722.021 237.313 722.25 235.941 722.25 234.34C722.25 232.761 722.021 231.378 721.564 230.191C721.117 229.004 720.453 228.084 719.571 227.43C718.7 226.766 717.627 226.434 716.353 226.434C715.035 226.434 713.935 226.777 713.053 227.463C712.171 228.149 711.507 229.091 711.06 230.289C710.614 231.476 710.39 232.826 710.39 234.34C710.39 235.876 710.614 237.221 711.06 238.375C711.518 239.518 712.187 240.411 713.069 241.054C713.962 241.686 715.057 242.001 716.353 242.001ZM734.142 247V221.909H740.055V247H734.142ZM737.115 218.348C736.178 218.348 735.372 218.038 734.697 217.417C734.022 216.785 733.684 216.028 733.684 215.146C733.684 214.253 734.022 213.496 734.697 212.876C735.372 212.244 736.178 211.928 737.115 211.928C738.062 211.928 738.868 212.244 739.532 212.876C740.208 213.496 740.545 214.253 740.545 215.146C740.545 216.028 740.208 216.785 739.532 217.417C738.868 218.038 738.062 218.348 737.115 218.348ZM758.665 221.909V226.483H744.241V221.909H758.665ZM747.802 215.898H753.716V239.453C753.716 240.248 753.835 240.858 754.075 241.283C754.325 241.696 754.652 241.98 755.055 242.132C755.458 242.285 755.904 242.361 756.395 242.361C756.765 242.361 757.102 242.334 757.407 242.279C757.723 242.225 757.963 242.176 758.126 242.132L759.123 246.755C758.807 246.864 758.355 246.984 757.767 247.114C757.19 247.245 756.482 247.321 755.643 247.343C754.162 247.387 752.828 247.163 751.641 246.673C750.454 246.172 749.512 245.399 748.815 244.354C748.129 243.308 747.791 242.001 747.802 240.433V215.898ZM770.063 232.298V247H764.15V213.545H769.932V226.173H770.226C770.814 224.757 771.724 223.641 772.954 222.824C774.196 221.996 775.775 221.582 777.692 221.582C779.434 221.582 780.953 221.947 782.249 222.677C783.545 223.406 784.547 224.474 785.255 225.879C785.974 227.283 786.333 228.999 786.333 231.024V247H780.42V231.939C780.42 230.251 779.984 228.939 779.113 228.002C778.252 227.055 777.044 226.581 775.486 226.581C774.441 226.581 773.504 226.81 772.677 227.267C771.86 227.714 771.217 228.362 770.749 229.211C770.292 230.06 770.063 231.089 770.063 232.298ZM808.353 236.447V221.909H814.266V247H808.532V242.54H808.271C807.705 243.945 806.774 245.094 805.478 245.987C804.193 246.88 802.608 247.327 800.724 247.327C799.08 247.327 797.626 246.962 796.363 246.232C795.11 245.492 794.13 244.419 793.422 243.014C792.715 241.598 792.361 239.889 792.361 237.885V221.909H798.274V236.97C798.274 238.56 798.71 239.823 799.581 240.76C800.452 241.696 801.595 242.165 803.011 242.165C803.882 242.165 804.726 241.952 805.543 241.528C806.36 241.103 807.03 240.471 807.552 239.633C808.086 238.783 808.353 237.722 808.353 236.447ZM820.608 247V213.545H826.522V226.058H826.767C827.072 225.448 827.502 224.8 828.057 224.114C828.613 223.417 829.364 222.824 830.311 222.334C831.259 221.833 832.468 221.582 833.938 221.582C835.876 221.582 837.624 222.078 839.181 223.069C840.75 224.049 841.991 225.503 842.906 227.43C843.832 229.347 844.294 231.699 844.294 234.487C844.294 237.242 843.842 239.584 842.939 241.511C842.035 243.439 840.804 244.909 839.247 245.922C837.69 246.935 835.925 247.441 833.954 247.441C832.517 247.441 831.324 247.201 830.377 246.722C829.429 246.243 828.667 245.666 828.09 244.991C827.524 244.305 827.083 243.657 826.767 243.047H826.424V247H820.608ZM826.407 234.455C826.407 236.077 826.636 237.498 827.093 238.718C827.562 239.938 828.231 240.891 829.103 241.577C829.985 242.252 831.052 242.589 832.304 242.589C833.611 242.589 834.706 242.241 835.588 241.544C836.47 240.836 837.134 239.872 837.581 238.653C838.038 237.422 838.267 236.023 838.267 234.455C838.267 232.897 838.043 231.514 837.597 230.305C837.15 229.097 836.486 228.149 835.604 227.463C834.722 226.777 833.622 226.434 832.304 226.434C831.041 226.434 829.968 226.766 829.086 227.43C828.204 228.095 827.534 229.026 827.077 230.224C826.631 231.422 826.407 232.832 826.407 234.455ZM860.732 247V221.909H866.465V226.091H866.727C867.184 224.643 867.968 223.526 869.079 222.742C870.201 221.947 871.48 221.55 872.918 221.55C873.244 221.55 873.609 221.566 874.012 221.599C874.426 221.621 874.769 221.659 875.041 221.713V227.153C874.791 227.066 874.393 226.989 873.849 226.924C873.315 226.848 872.798 226.81 872.297 226.81C871.219 226.81 870.25 227.044 869.389 227.512C868.54 227.969 867.87 228.607 867.38 229.423C866.89 230.24 866.645 231.182 866.645 232.249V247H860.732ZM889.045 247.49C886.529 247.49 884.357 246.967 882.527 245.922C880.708 244.866 879.309 243.374 878.329 241.446C877.349 239.508 876.859 237.226 876.859 234.602C876.859 232.021 877.349 229.755 878.329 227.806C879.32 225.846 880.703 224.321 882.478 223.232C884.253 222.132 886.339 221.582 888.734 221.582C890.281 221.582 891.74 221.833 893.112 222.334C894.495 222.824 895.715 223.586 896.771 224.621C897.839 225.655 898.677 226.973 899.287 228.574C899.897 230.164 900.202 232.059 900.202 234.259V236.072H879.636V232.086H894.533C894.522 230.953 894.277 229.946 893.798 229.064C893.319 228.171 892.649 227.469 891.789 226.957C890.94 226.445 889.949 226.189 888.816 226.189C887.607 226.189 886.545 226.483 885.631 227.071C884.716 227.648 884.003 228.411 883.491 229.358C882.99 230.295 882.734 231.324 882.723 232.445V235.925C882.723 237.384 882.99 238.636 883.523 239.682C884.057 240.716 884.803 241.511 885.761 242.067C886.72 242.611 887.841 242.884 889.126 242.884C889.987 242.884 890.765 242.764 891.462 242.524C892.159 242.274 892.764 241.909 893.276 241.43C893.787 240.951 894.174 240.357 894.435 239.649L899.957 240.27C899.608 241.729 898.944 243.003 897.964 244.092C896.995 245.17 895.753 246.009 894.239 246.608C892.726 247.196 890.994 247.49 889.045 247.49ZM905.204 256.409V221.909H911.02V226.058H911.363C911.668 225.448 912.098 224.8 912.653 224.114C913.209 223.417 913.96 222.824 914.907 222.334C915.855 221.833 917.064 221.582 918.534 221.582C920.472 221.582 922.22 222.078 923.778 223.069C925.346 224.049 926.587 225.503 927.502 227.43C928.428 229.347 928.89 231.699 928.89 234.487C928.89 237.242 928.439 239.584 927.535 241.511C926.631 243.439 925.4 244.909 923.843 245.922C922.286 246.935 920.521 247.441 918.55 247.441C917.113 247.441 915.92 247.201 914.973 246.722C914.025 246.243 913.263 245.666 912.686 244.991C912.12 244.305 911.679 243.657 911.363 243.047H911.118V256.409H905.204ZM911.003 234.455C911.003 236.077 911.232 237.498 911.689 238.718C912.158 239.938 912.827 240.891 913.699 241.577C914.581 242.252 915.648 242.589 916.9 242.589C918.207 242.589 919.302 242.241 920.184 241.544C921.066 240.836 921.73 239.872 922.177 238.653C922.634 237.422 922.863 236.023 922.863 234.455C922.863 232.897 922.64 231.514 922.193 230.305C921.747 229.097 921.082 228.149 920.2 227.463C919.318 226.777 918.218 226.434 916.9 226.434C915.637 226.434 914.564 226.766 913.682 227.43C912.8 228.095 912.131 229.026 911.673 230.224C911.227 231.422 911.003 232.832 911.003 234.455ZM944.899 247.49C942.449 247.49 940.325 246.951 938.528 245.873C936.731 244.795 935.337 243.286 934.346 241.348C933.366 239.41 932.876 237.144 932.876 234.553C932.876 231.961 933.366 229.69 934.346 227.741C935.337 225.791 936.731 224.278 938.528 223.2C940.325 222.121 942.449 221.582 944.899 221.582C947.349 221.582 949.473 222.121 951.27 223.2C953.067 224.278 954.455 225.791 955.435 227.741C956.426 229.69 956.922 231.961 956.922 234.553C956.922 237.144 956.426 239.41 955.435 241.348C954.455 243.286 953.067 244.795 951.27 245.873C949.473 246.951 947.349 247.49 944.899 247.49ZM944.932 242.753C946.26 242.753 947.371 242.388 948.264 241.658C949.157 240.918 949.821 239.927 950.257 238.685C950.703 237.444 950.927 236.061 950.927 234.536C950.927 233.001 950.703 231.612 950.257 230.371C949.821 229.118 949.157 228.122 948.264 227.381C947.371 226.641 946.26 226.271 944.932 226.271C943.57 226.271 942.438 226.641 941.534 227.381C940.641 228.122 939.971 229.118 939.525 230.371C939.089 231.612 938.871 233.001 938.871 234.536C938.871 236.061 939.089 237.444 939.525 238.685C939.971 239.927 940.641 240.918 941.534 241.658C942.438 242.388 943.57 242.753 944.932 242.753ZM981.772 228.541L976.381 229.129C976.229 228.585 975.962 228.073 975.581 227.594C975.21 227.115 974.709 226.728 974.078 226.434C973.446 226.14 972.673 225.993 971.758 225.993C970.528 225.993 969.493 226.26 968.654 226.793C967.827 227.327 967.418 228.018 967.429 228.868C967.418 229.598 967.685 230.191 968.23 230.648C968.785 231.106 969.7 231.482 970.974 231.776L975.254 232.69C977.628 233.202 979.392 234.013 980.547 235.124C981.712 236.235 982.3 237.689 982.311 239.486C982.3 241.065 981.837 242.459 980.922 243.668C980.018 244.866 978.761 245.802 977.149 246.477C975.537 247.152 973.686 247.49 971.595 247.49C968.524 247.49 966.052 246.848 964.179 245.562C962.306 244.267 961.189 242.464 960.83 240.156L966.596 239.6C966.858 240.733 967.413 241.588 968.262 242.165C969.112 242.742 970.217 243.031 971.578 243.031C972.983 243.031 974.11 242.742 974.96 242.165C975.82 241.588 976.25 240.874 976.25 240.025C976.25 239.306 975.973 238.713 975.417 238.244C974.873 237.776 974.023 237.417 972.869 237.166L968.589 236.268C966.182 235.767 964.402 234.923 963.248 233.736C962.093 232.538 961.521 231.024 961.532 229.195C961.521 227.648 961.941 226.309 962.79 225.176C963.65 224.033 964.843 223.151 966.368 222.53C967.903 221.898 969.673 221.582 971.676 221.582C974.617 221.582 976.931 222.209 978.619 223.461C980.318 224.713 981.369 226.407 981.772 228.541ZM987.187 247V221.909H993.1V247H987.187ZM990.16 218.348C989.223 218.348 988.417 218.038 987.742 217.417C987.067 216.785 986.729 216.028 986.729 215.146C986.729 214.253 987.067 213.496 987.742 212.876C988.417 212.244 989.223 211.928 990.16 211.928C991.107 211.928 991.913 212.244 992.577 212.876C993.253 213.496 993.59 214.253 993.59 215.146C993.59 216.028 993.253 216.785 992.577 217.417C991.913 218.038 991.107 218.348 990.16 218.348ZM1011.71 221.909V226.483H997.286V221.909H1011.71ZM1000.85 215.898H1006.76V239.453C1006.76 240.248 1006.88 240.858 1007.12 241.283C1007.37 241.696 1007.7 241.98 1008.1 242.132C1008.5 242.285 1008.95 242.361 1009.44 242.361C1009.81 242.361 1010.15 242.334 1010.45 242.279C1010.77 242.225 1011.01 242.176 1011.17 242.132L1012.17 246.755C1011.85 246.864 1011.4 246.984 1010.81 247.114C1010.23 247.245 1009.53 247.321 1008.69 247.343C1007.21 247.387 1005.87 247.163 1004.69 246.673C1003.5 246.172 1002.56 245.399 1001.86 244.354C1001.17 243.308 1000.84 242.001 1000.85 240.433V215.898ZM1027.33 247.49C1024.88 247.49 1022.76 246.951 1020.96 245.873C1019.16 244.795 1017.77 243.286 1016.78 241.348C1015.8 239.41 1015.31 237.144 1015.31 234.553C1015.31 231.961 1015.8 229.69 1016.78 227.741C1017.77 225.791 1019.16 224.278 1020.96 223.2C1022.76 222.121 1024.88 221.582 1027.33 221.582C1029.78 221.582 1031.9 222.121 1033.7 223.2C1035.5 224.278 1036.89 225.791 1037.87 227.741C1038.86 229.69 1039.35 231.961 1039.35 234.553C1039.35 237.144 1038.86 239.41 1037.87 241.348C1036.89 243.286 1035.5 244.795 1033.7 245.873C1031.9 246.951 1029.78 247.49 1027.33 247.49ZM1027.36 242.753C1028.69 242.753 1029.8 242.388 1030.7 241.658C1031.59 240.918 1032.25 239.927 1032.69 238.685C1033.14 237.444 1033.36 236.061 1033.36 234.536C1033.36 233.001 1033.14 231.612 1032.69 230.371C1032.25 229.118 1031.59 228.122 1030.7 227.381C1029.8 226.641 1028.69 226.271 1027.36 226.271C1026 226.271 1024.87 226.641 1023.97 227.381C1023.07 228.122 1022.4 229.118 1021.96 230.371C1021.52 231.612 1021.3 233.001 1021.3 234.536C1021.3 236.061 1021.52 237.444 1021.96 238.685C1022.4 239.927 1023.07 240.918 1023.97 241.658C1024.87 242.388 1026 242.753 1027.36 242.753ZM1044.37 247V221.909H1050.11V226.091H1050.37C1050.82 224.643 1051.61 223.526 1052.72 222.742C1053.84 221.947 1055.12 221.55 1056.56 221.55C1056.89 221.55 1057.25 221.566 1057.65 221.599C1058.07 221.621 1058.41 221.659 1058.68 221.713V227.153C1058.43 227.066 1058.03 226.989 1057.49 226.924C1056.96 226.848 1056.44 226.81 1055.94 226.81C1054.86 226.81 1053.89 227.044 1053.03 227.512C1052.18 227.969 1051.51 228.607 1051.02 229.423C1050.53 230.24 1050.29 231.182 1050.29 232.249V247H1044.37ZM1067.05 256.409C1066.24 256.409 1065.5 256.344 1064.81 256.213C1064.14 256.093 1063.6 255.952 1063.19 255.788L1064.57 251.182C1065.43 251.432 1066.19 251.552 1066.87 251.541C1067.55 251.53 1068.14 251.318 1068.65 250.904C1069.17 250.501 1069.61 249.826 1069.97 248.879L1070.48 247.523L1061.38 221.909H1067.65L1073.44 240.858H1073.7L1079.5 221.909H1085.79L1075.74 250.038C1075.27 251.367 1074.65 252.505 1073.88 253.452C1073.1 254.411 1072.16 255.14 1071.04 255.641C1069.92 256.153 1068.6 256.409 1067.05 256.409Z" fill="black"/>
<path d="M532.675 527H529.646L536.451 508.091H539.747L546.552 527H543.523L538.178 511.526H538.03L532.675 527ZM533.183 519.595H543.006V521.996H533.183V519.595ZM561.915 527.286C560.543 527.286 559.361 526.975 558.37 526.354C557.385 525.726 556.628 524.861 556.099 523.759C555.569 522.657 555.305 521.396 555.305 519.974C555.305 518.533 555.576 517.262 556.117 516.161C556.659 515.053 557.422 514.188 558.407 513.566C559.392 512.944 560.552 512.634 561.888 512.634C562.965 512.634 563.925 512.834 564.768 513.234C565.612 513.628 566.292 514.182 566.809 514.896C567.332 515.61 567.643 516.444 567.741 517.398H565.055C564.907 516.733 564.568 516.161 564.039 515.68C563.516 515.2 562.814 514.96 561.934 514.96C561.165 514.96 560.491 515.163 559.912 515.57C559.339 515.97 558.893 516.542 558.573 517.287C558.253 518.026 558.093 518.9 558.093 519.909C558.093 520.943 558.25 521.836 558.564 522.587C558.878 523.338 559.321 523.919 559.893 524.332C560.472 524.744 561.152 524.95 561.934 524.95C562.457 524.95 562.931 524.855 563.356 524.664C563.787 524.467 564.147 524.187 564.436 523.824C564.732 523.461 564.938 523.024 565.055 522.513H567.741C567.643 523.43 567.344 524.249 566.846 524.969C566.347 525.689 565.679 526.255 564.842 526.668C564.011 527.08 563.036 527.286 561.915 527.286ZM576.667 527.286C575.338 527.286 574.178 526.982 573.187 526.372C572.196 525.763 571.426 524.91 570.878 523.815C570.331 522.719 570.057 521.439 570.057 519.974C570.057 518.503 570.331 517.216 570.878 516.114C571.426 515.013 572.196 514.157 573.187 513.548C574.178 512.938 575.338 512.634 576.667 512.634C577.997 512.634 579.157 512.938 580.148 513.548C581.139 514.157 581.909 515.013 582.456 516.114C583.004 517.216 583.278 518.503 583.278 519.974C583.278 521.439 583.004 522.719 582.456 523.815C581.909 524.91 581.139 525.763 580.148 526.372C579.157 526.982 577.997 527.286 576.667 527.286ZM576.677 524.969C577.538 524.969 578.252 524.741 578.819 524.286C579.385 523.83 579.804 523.224 580.074 522.467C580.351 521.71 580.49 520.875 580.49 519.964C580.49 519.06 580.351 518.229 580.074 517.472C579.804 516.708 579.385 516.096 578.819 515.634C578.252 515.173 577.538 514.942 576.677 514.942C575.809 514.942 575.089 515.173 574.516 515.634C573.95 516.096 573.528 516.708 573.251 517.472C572.98 518.229 572.845 519.06 572.845 519.964C572.845 520.875 572.98 521.71 573.251 522.467C573.528 523.224 573.95 523.83 574.516 524.286C575.089 524.741 575.809 524.969 576.677 524.969ZM586.36 527V512.818H589.01V515.126H589.185C589.48 514.345 589.964 513.735 590.635 513.298C591.306 512.855 592.109 512.634 593.044 512.634C593.992 512.634 594.786 512.855 595.426 513.298C596.073 513.741 596.55 514.351 596.858 515.126H597.005C597.344 514.369 597.882 513.766 598.621 513.317C599.36 512.861 600.24 512.634 601.262 512.634C602.548 512.634 603.598 513.037 604.41 513.843C605.229 514.649 605.638 515.865 605.638 517.49V527H602.877V517.749C602.877 516.788 602.616 516.093 602.093 515.662C601.569 515.231 600.945 515.016 600.218 515.016C599.32 515.016 598.621 515.293 598.123 515.847C597.624 516.394 597.375 517.099 597.375 517.961V527H594.623V517.573C594.623 516.804 594.383 516.185 593.903 515.717C593.423 515.25 592.798 515.016 592.029 515.016C591.506 515.016 591.022 515.154 590.579 515.431C590.142 515.702 589.788 516.08 589.517 516.567C589.253 517.053 589.12 517.616 589.12 518.256V527H586.36ZM609.338 527V512.818H611.988V515.126H612.164C612.459 514.345 612.942 513.735 613.613 513.298C614.284 512.855 615.087 512.634 616.023 512.634C616.971 512.634 617.765 512.855 618.405 513.298C619.051 513.741 619.528 514.351 619.836 515.126H619.984C620.322 514.369 620.861 513.766 621.6 513.317C622.338 512.861 623.218 512.634 624.24 512.634C625.527 512.634 626.576 513.037 627.389 513.843C628.207 514.649 628.617 515.865 628.617 517.49V527H625.856V517.749C625.856 516.788 625.594 516.093 625.071 515.662C624.548 515.231 623.923 515.016 623.197 515.016C622.298 515.016 621.6 515.293 621.101 515.847C620.602 516.394 620.353 517.099 620.353 517.961V527H617.602V517.573C617.602 516.804 617.362 516.185 616.882 515.717C616.401 515.25 615.777 515.016 615.007 515.016C614.484 515.016 614.001 515.154 613.558 515.431C613.121 515.702 612.767 516.08 612.496 516.567C612.231 517.053 612.099 517.616 612.099 518.256V527H609.338ZM641.3 521.119V512.818H644.07V527H641.356V524.544H641.208C640.882 525.301 640.359 525.932 639.638 526.437C638.924 526.935 638.035 527.185 636.97 527.185C636.059 527.185 635.253 526.985 634.551 526.585C633.856 526.178 633.308 525.578 632.908 524.784C632.514 523.99 632.317 523.008 632.317 521.839V512.818H635.077V521.506C635.077 522.473 635.345 523.242 635.881 523.815C636.416 524.387 637.112 524.673 637.967 524.673C638.484 524.673 638.998 524.544 639.509 524.286C640.026 524.027 640.454 523.636 640.793 523.113C641.137 522.59 641.307 521.925 641.3 521.119ZM650.54 518.58V527H647.78V512.818H650.43V515.126H650.605C650.931 514.375 651.442 513.772 652.138 513.317C652.839 512.861 653.723 512.634 654.787 512.634C655.754 512.634 656.6 512.837 657.327 513.243C658.053 513.643 658.616 514.24 659.016 515.034C659.416 515.828 659.616 516.81 659.616 517.979V527H656.856V518.312C656.856 517.284 656.588 516.481 656.052 515.902C655.517 515.317 654.781 515.025 653.846 515.025C653.206 515.025 652.636 515.163 652.138 515.44C651.645 515.717 651.254 516.124 650.965 516.659C650.682 517.188 650.54 517.829 650.54 518.58ZM663.319 527V512.818H666.079V527H663.319ZM664.713 510.63C664.233 510.63 663.82 510.47 663.476 510.15C663.137 509.824 662.968 509.436 662.968 508.987C662.968 508.531 663.137 508.143 663.476 507.823C663.82 507.497 664.233 507.334 664.713 507.334C665.193 507.334 665.602 507.497 665.941 507.823C666.286 508.143 666.458 508.531 666.458 508.987C666.458 509.436 666.286 509.824 665.941 510.15C665.602 510.47 665.193 510.63 664.713 510.63ZM676.413 512.818V515.034H668.667V512.818H676.413ZM670.744 509.42H673.505V522.836C673.505 523.371 673.585 523.775 673.745 524.045C673.905 524.31 674.111 524.492 674.364 524.59C674.622 524.683 674.902 524.729 675.204 524.729C675.425 524.729 675.619 524.713 675.786 524.683C675.952 524.652 676.081 524.627 676.173 524.609L676.672 526.889C676.512 526.951 676.284 527.012 675.989 527.074C675.693 527.142 675.324 527.179 674.881 527.185C674.154 527.197 673.477 527.068 672.849 526.797C672.222 526.526 671.714 526.107 671.326 525.541C670.938 524.975 670.744 524.264 670.744 523.408V509.42ZM681.212 532.318C680.8 532.318 680.424 532.284 680.086 532.217C679.747 532.155 679.495 532.087 679.329 532.013L679.993 529.751C680.498 529.887 680.948 529.945 681.341 529.927C681.735 529.908 682.083 529.761 682.385 529.484C682.693 529.207 682.963 528.754 683.197 528.126L683.539 527.185L678.35 512.818H681.305L684.896 523.824H685.044L688.635 512.818H691.599L685.755 528.893C685.484 529.631 685.139 530.256 684.721 530.767C684.302 531.284 683.804 531.672 683.225 531.93C682.646 532.189 681.975 532.318 681.212 532.318ZM707.048 527.286C705.719 527.286 704.558 526.982 703.567 526.372C702.576 525.763 701.807 524.91 701.259 523.815C700.711 522.719 700.438 521.439 700.438 519.974C700.438 518.503 700.711 517.216 701.259 516.114C701.807 515.013 702.576 514.157 703.567 513.548C704.558 512.938 705.719 512.634 707.048 512.634C708.378 512.634 709.538 512.938 710.529 513.548C711.52 514.157 712.29 515.013 712.837 516.114C713.385 517.216 713.659 518.503 713.659 519.974C713.659 521.439 713.385 522.719 712.837 523.815C712.29 524.91 711.52 525.763 710.529 526.372C709.538 526.982 708.378 527.286 707.048 527.286ZM707.058 524.969C707.919 524.969 708.633 524.741 709.2 524.286C709.766 523.83 710.184 523.224 710.455 522.467C710.732 521.71 710.871 520.875 710.871 519.964C710.871 519.06 710.732 518.229 710.455 517.472C710.184 516.708 709.766 516.096 709.2 515.634C708.633 515.173 707.919 514.942 707.058 514.942C706.19 514.942 705.469 515.173 704.897 515.634C704.331 516.096 703.909 516.708 703.632 517.472C703.361 518.229 703.226 519.06 703.226 519.964C703.226 520.875 703.361 521.71 703.632 522.467C703.909 523.224 704.331 523.83 704.897 524.286C705.469 524.741 706.19 524.969 707.058 524.969ZM723.49 512.818V515.034H715.476V512.818H723.49ZM717.673 527V511.175C717.673 510.288 717.867 509.553 718.255 508.968C718.643 508.377 719.157 507.937 719.797 507.648C720.437 507.352 721.132 507.205 721.883 507.205C722.437 507.205 722.911 507.251 723.305 507.343C723.699 507.429 723.992 507.509 724.182 507.583L723.536 509.817C723.407 509.781 723.241 509.737 723.037 509.688C722.834 509.633 722.588 509.605 722.299 509.605C721.628 509.605 721.148 509.771 720.858 510.104C720.575 510.436 720.434 510.916 720.434 511.544V527H717.673ZM733.441 527V508.091H736.294V516.308H745.721V508.091H748.583V527H745.721V518.755H736.294V527H733.441ZM756.643 527.314C755.744 527.314 754.932 527.148 754.206 526.815C753.479 526.477 752.904 525.987 752.479 525.347C752.06 524.707 751.851 523.922 751.851 522.993C751.851 522.193 752.005 521.534 752.313 521.017C752.621 520.5 753.036 520.091 753.559 519.789C754.083 519.487 754.667 519.26 755.314 519.106C755.96 518.952 756.618 518.835 757.289 518.755C758.139 518.656 758.828 518.576 759.358 518.515C759.887 518.447 760.272 518.339 760.512 518.192C760.752 518.044 760.872 517.804 760.872 517.472V517.407C760.872 516.601 760.644 515.976 760.189 515.533C759.739 515.089 759.068 514.868 758.176 514.868C757.246 514.868 756.514 515.074 755.978 515.487C755.449 515.893 755.083 516.345 754.88 516.844L752.285 516.253C752.593 515.391 753.042 514.696 753.633 514.166C754.23 513.631 754.917 513.243 755.692 513.003C756.468 512.757 757.283 512.634 758.139 512.634C758.705 512.634 759.305 512.701 759.939 512.837C760.579 512.966 761.176 513.206 761.73 513.557C762.291 513.908 762.749 514.409 763.106 515.062C763.463 515.708 763.642 516.548 763.642 517.582V527H760.946V525.061H760.835C760.656 525.418 760.389 525.769 760.032 526.114C759.675 526.458 759.216 526.745 758.656 526.972C758.096 527.2 757.425 527.314 756.643 527.314ZM757.243 525.098C758.007 525.098 758.659 524.947 759.201 524.646C759.748 524.344 760.164 523.95 760.447 523.464C760.736 522.971 760.881 522.445 760.881 521.885V520.057C760.783 520.155 760.592 520.248 760.309 520.334C760.032 520.414 759.715 520.485 759.358 520.546C759.001 520.602 758.653 520.654 758.314 520.703C757.976 520.746 757.693 520.783 757.465 520.814C756.929 520.882 756.44 520.996 755.997 521.156C755.56 521.316 755.209 521.546 754.944 521.848C754.686 522.143 754.556 522.537 754.556 523.03C754.556 523.713 754.809 524.23 755.314 524.581C755.818 524.926 756.462 525.098 757.243 525.098ZM773.292 527.286C771.92 527.286 770.738 526.975 769.747 526.354C768.762 525.726 768.005 524.861 767.476 523.759C766.946 522.657 766.682 521.396 766.682 519.974C766.682 518.533 766.952 517.262 767.494 516.161C768.036 515.053 768.799 514.188 769.784 513.566C770.769 512.944 771.929 512.634 773.265 512.634C774.342 512.634 775.302 512.834 776.145 513.234C776.989 513.628 777.669 514.182 778.186 514.896C778.709 515.61 779.02 516.444 779.118 517.398H776.432C776.284 516.733 775.945 516.161 775.416 515.68C774.893 515.2 774.191 514.96 773.311 514.96C772.541 514.96 771.867 515.163 771.289 515.57C770.716 515.97 770.27 516.542 769.95 517.287C769.63 518.026 769.47 518.9 769.47 519.909C769.47 520.943 769.627 521.836 769.941 522.587C770.255 523.338 770.698 523.919 771.27 524.332C771.849 524.744 772.529 524.95 773.311 524.95C773.834 524.95 774.308 524.855 774.733 524.664C775.164 524.467 775.524 524.187 775.813 523.824C776.108 523.461 776.315 523.024 776.432 522.513H779.118C779.02 523.43 778.721 524.249 778.223 524.969C777.724 525.689 777.056 526.255 776.219 526.668C775.388 527.08 774.413 527.286 773.292 527.286ZM784.61 522.19L784.591 518.82H785.071L790.722 512.818H794.027L787.583 519.651H787.149L784.61 522.19ZM782.071 527V508.091H784.831V527H782.071ZM791.027 527L785.949 520.26L787.85 518.33L794.415 527H791.027ZM802.072 527.286C800.674 527.286 799.471 526.988 798.461 526.391C797.458 525.787 796.683 524.941 796.135 523.852C795.593 522.756 795.322 521.473 795.322 520.001C795.322 518.549 795.593 517.268 796.135 516.161C796.683 515.053 797.446 514.188 798.425 513.566C799.409 512.944 800.56 512.634 801.878 512.634C802.678 512.634 803.453 512.766 804.204 513.031C804.955 513.295 805.629 513.711 806.226 514.277C806.823 514.843 807.294 515.579 807.639 516.484C807.984 517.382 808.156 518.475 808.156 519.761V520.74H796.883V518.672H805.451C805.451 517.946 805.303 517.302 805.008 516.742C804.712 516.176 804.297 515.73 803.761 515.403C803.232 515.077 802.61 514.914 801.896 514.914C801.121 514.914 800.443 515.105 799.865 515.487C799.292 515.862 798.849 516.354 798.535 516.964C798.228 517.567 798.074 518.223 798.074 518.93V520.546C798.074 521.494 798.24 522.3 798.572 522.965C798.911 523.63 799.382 524.138 799.985 524.489C800.588 524.833 801.293 525.006 802.099 525.006C802.622 525.006 803.099 524.932 803.53 524.784C803.961 524.63 804.334 524.402 804.648 524.101C804.961 523.799 805.202 523.427 805.368 522.984L807.981 523.455C807.771 524.224 807.396 524.898 806.854 525.477C806.319 526.049 805.645 526.495 804.832 526.815C804.026 527.129 803.106 527.286 802.072 527.286ZM811.219 527V512.818H813.887V515.071H814.035C814.294 514.308 814.749 513.708 815.402 513.271C816.06 512.827 816.805 512.606 817.636 512.606C817.808 512.606 818.011 512.612 818.245 512.624C818.485 512.637 818.673 512.652 818.809 512.67V515.311C818.698 515.28 818.501 515.246 818.218 515.21C817.935 515.166 817.651 515.145 817.368 515.145C816.716 515.145 816.134 515.283 815.623 515.56C815.118 515.831 814.718 516.21 814.423 516.696C814.127 517.176 813.98 517.724 813.98 518.339V527H811.219ZM831.825 516.281L829.323 516.724C829.218 516.404 829.052 516.099 828.824 515.81C828.602 515.52 828.301 515.283 827.919 515.099C827.538 514.914 827.061 514.822 826.488 514.822C825.706 514.822 825.054 514.997 824.531 515.348C824.008 515.693 823.746 516.139 823.746 516.687C823.746 517.161 823.921 517.542 824.272 517.832C824.623 518.121 825.189 518.358 825.971 518.543L828.224 519.06C829.529 519.361 830.501 519.826 831.142 520.454C831.782 521.082 832.102 521.897 832.102 522.901C832.102 523.75 831.856 524.507 831.363 525.172C830.877 525.83 830.197 526.348 829.323 526.723C828.455 527.098 827.448 527.286 826.303 527.286C824.715 527.286 823.42 526.948 822.416 526.271C821.413 525.587 820.798 524.618 820.57 523.362L823.238 522.956C823.404 523.652 823.746 524.178 824.263 524.535C824.78 524.886 825.454 525.061 826.285 525.061C827.19 525.061 827.913 524.873 828.455 524.498C828.996 524.116 829.267 523.652 829.267 523.104C829.267 522.661 829.101 522.288 828.769 521.987C828.442 521.685 827.941 521.457 827.264 521.303L824.863 520.777C823.54 520.475 822.561 519.995 821.927 519.337C821.299 518.678 820.985 517.844 820.985 516.835C820.985 515.997 821.219 515.265 821.687 514.637C822.155 514.009 822.801 513.52 823.626 513.169C824.451 512.812 825.396 512.634 826.46 512.634C827.993 512.634 829.2 512.966 830.08 513.631C830.96 514.289 831.542 515.173 831.825 516.281Z" fill="#A8A8A8"/>
<path d="M534.815 361V294.091H548.962V321.697H577.679V294.091H591.793V361H577.679V333.361H548.962V361H534.815ZM599.776 361V294.091H644.861V305.754H613.922V321.697H642.542V333.361H613.922V349.337H644.992V361H599.776ZM652.428 361V294.091H666.574V323.592H667.456L691.535 294.091H708.49L683.661 324.05L708.785 361H691.861L673.533 333.491L666.574 341.986V361H652.428ZM769.89 327.545C769.89 334.842 768.507 341.049 765.741 346.168C762.997 351.286 759.25 355.196 754.502 357.896C749.776 360.575 744.462 361.915 738.559 361.915C732.613 361.915 727.277 360.564 722.551 357.864C717.824 355.163 714.089 351.253 711.345 346.135C708.6 341.017 707.228 334.82 707.228 327.545C707.228 320.249 708.6 314.042 711.345 308.923C714.089 303.805 717.824 299.906 722.551 297.227C727.277 294.527 732.613 293.176 738.559 293.176C744.462 293.176 749.776 294.527 754.502 297.227C759.25 299.906 762.997 303.805 765.741 308.923C768.507 314.042 769.89 320.249 769.89 327.545ZM755.548 327.545C755.548 322.819 754.84 318.833 753.424 315.588C752.03 312.343 750.059 309.882 747.511 308.205C744.962 306.527 741.979 305.689 738.559 305.689C735.14 305.689 732.156 306.527 729.607 308.205C727.059 309.882 725.077 312.343 723.661 315.588C722.267 318.833 721.57 322.819 721.57 327.545C721.57 332.272 722.267 336.258 723.661 339.503C725.077 342.748 727.059 345.209 729.607 346.886C732.156 348.563 735.14 349.402 738.559 349.402C741.979 349.402 744.962 348.563 747.511 346.886C750.059 345.209 752.03 342.748 753.424 339.503C754.84 336.258 755.548 332.272 755.548 327.545ZM776.689 361V294.091H803.087C808.14 294.091 812.452 294.995 816.024 296.803C819.618 298.589 822.351 301.126 824.225 304.415C826.119 307.682 827.067 311.526 827.067 315.947C827.067 320.391 826.109 324.213 824.192 327.415C822.275 330.595 819.498 333.034 815.861 334.733C812.245 336.432 807.868 337.281 802.727 337.281H785.053V325.912H800.441C803.141 325.912 805.385 325.542 807.171 324.801C808.957 324.061 810.285 322.95 811.156 321.469C812.049 319.988 812.496 318.147 812.496 315.947C812.496 313.726 812.049 311.853 811.156 310.328C810.285 308.804 808.946 307.649 807.138 306.865C805.352 306.059 803.098 305.656 800.375 305.656H790.835V361H776.689ZM812.823 330.551L829.452 361H813.835L797.566 330.551H812.823ZM869.681 313.334C869.42 310.698 868.298 308.651 866.316 307.192C864.334 305.732 861.644 305.003 858.246 305.003C855.938 305.003 853.988 305.33 852.398 305.983C850.808 306.615 849.589 307.497 848.739 308.629C847.912 309.762 847.498 311.047 847.498 312.484C847.454 313.682 847.705 314.728 848.249 315.621C848.815 316.514 849.589 317.287 850.569 317.94C851.549 318.572 852.681 319.127 853.966 319.607C855.252 320.064 856.624 320.456 858.083 320.783L864.094 322.22C867.013 322.874 869.692 323.745 872.131 324.834C874.571 325.923 876.683 327.262 878.469 328.852C880.255 330.442 881.638 332.315 882.618 334.472C883.62 336.628 884.132 339.1 884.154 341.888C884.132 345.982 883.087 349.533 881.018 352.538C878.97 355.522 876.008 357.842 872.131 359.497C868.276 361.131 863.626 361.947 858.181 361.947C852.779 361.947 848.075 361.12 844.067 359.464C840.082 357.809 836.967 355.359 834.724 352.114C832.502 348.847 831.337 344.806 831.228 339.993H844.917C845.069 342.236 845.712 344.109 846.844 345.612C847.999 347.093 849.534 348.215 851.451 348.977C853.389 349.718 855.578 350.088 858.018 350.088C860.413 350.088 862.493 349.74 864.258 349.043C866.044 348.346 867.427 347.376 868.407 346.135C869.387 344.893 869.877 343.467 869.877 341.855C869.877 340.352 869.431 339.089 868.538 338.065C867.666 337.042 866.381 336.17 864.682 335.452C863.005 334.733 860.947 334.08 858.508 333.491L851.222 331.662C845.581 330.29 841.127 328.144 837.86 325.226C834.593 322.307 832.97 318.376 832.992 313.432C832.97 309.381 834.048 305.841 836.226 302.814C838.426 299.786 841.443 297.423 845.276 295.724C849.109 294.026 853.466 293.176 858.344 293.176C863.31 293.176 867.645 294.026 871.347 295.724C875.072 297.423 877.968 299.786 880.038 302.814C882.107 305.841 883.174 309.348 883.239 313.334H869.681ZM593.851 428.516H579.541C579.28 426.664 578.746 425.02 577.94 423.582C577.134 422.123 576.1 420.882 574.837 419.858C573.573 418.834 572.114 418.05 570.459 417.506C568.825 416.961 567.05 416.689 565.134 416.689C561.67 416.689 558.654 417.549 556.084 419.27C553.514 420.969 551.521 423.452 550.105 426.719C548.689 429.964 547.982 433.906 547.982 438.545C547.982 443.315 548.689 447.323 550.105 450.568C551.543 453.813 553.546 456.264 556.116 457.919C558.687 459.574 561.66 460.402 565.036 460.402C566.93 460.402 568.684 460.152 570.295 459.651C571.929 459.15 573.377 458.42 574.641 457.462C575.904 456.482 576.949 455.295 577.777 453.901C578.626 452.507 579.214 450.917 579.541 449.131L593.851 449.196C593.481 452.267 592.555 455.229 591.074 458.082C589.615 460.914 587.643 463.451 585.161 465.695C582.699 467.916 579.759 469.68 576.339 470.987C572.942 472.272 569.098 472.915 564.807 472.915C558.839 472.915 553.503 471.564 548.798 468.864C544.116 466.163 540.413 462.253 537.69 457.135C534.99 452.017 533.639 445.82 533.639 438.545C533.639 431.249 535.011 425.042 537.756 419.923C540.5 414.805 544.224 410.906 548.929 408.227C553.634 405.527 558.926 404.176 564.807 404.176C568.684 404.176 572.277 404.721 575.588 405.81C578.92 406.899 581.872 408.489 584.442 410.58C587.012 412.649 589.103 415.186 590.714 418.192C592.348 421.197 593.393 424.639 593.851 428.516ZM622.727 472.98C617.652 472.98 613.263 471.902 609.561 469.746C605.88 467.568 603.038 464.54 601.034 460.663C599.03 456.765 598.028 452.245 598.028 447.105C598.028 441.921 599.03 437.391 601.034 433.514C603.038 429.616 605.88 426.588 609.561 424.432C613.263 422.254 617.652 421.165 622.727 421.165C627.802 421.165 632.18 422.254 635.86 424.432C639.563 426.588 642.416 429.616 644.42 433.514C646.424 437.391 647.426 441.921 647.426 447.105C647.426 452.245 646.424 456.765 644.42 460.663C642.416 464.54 639.563 467.568 635.86 469.746C632.18 471.902 627.802 472.98 622.727 472.98ZM622.792 462.199C625.101 462.199 627.029 461.545 628.575 460.239C630.121 458.91 631.287 457.102 632.071 454.815C632.877 452.528 633.28 449.926 633.28 447.007C633.28 444.089 632.877 441.486 632.071 439.199C631.287 436.912 630.121 435.104 628.575 433.776C627.029 432.447 625.101 431.783 622.792 431.783C620.462 431.783 618.502 432.447 616.912 433.776C615.343 435.104 614.156 436.912 613.351 439.199C612.566 441.486 612.174 444.089 612.174 447.007C612.174 449.926 612.566 452.528 613.351 454.815C614.156 457.102 615.343 458.91 616.912 460.239C618.502 461.545 620.462 462.199 622.792 462.199ZM652.796 472V421.818H666.06V430.672H666.648C667.693 427.732 669.436 425.412 671.875 423.713C674.314 422.014 677.233 421.165 680.631 421.165C684.072 421.165 687.002 422.025 689.419 423.746C691.837 425.445 693.448 427.753 694.254 430.672H694.777C695.801 427.797 697.652 425.499 700.331 423.778C703.032 422.036 706.223 421.165 709.903 421.165C714.586 421.165 718.387 422.657 721.305 425.641C724.246 428.603 725.716 432.806 725.716 438.251V472H711.831V440.996C711.831 438.208 711.091 436.117 709.609 434.723C708.128 433.329 706.277 432.632 704.055 432.632C701.529 432.632 699.558 433.438 698.142 435.05C696.726 436.64 696.019 438.741 696.019 441.355V472H682.526V440.702C682.526 438.241 681.818 436.28 680.402 434.821C679.008 433.362 677.168 432.632 674.881 432.632C673.334 432.632 671.94 433.024 670.699 433.808C669.479 434.571 668.51 435.649 667.791 437.043C667.073 438.415 666.713 440.027 666.713 441.878V472H652.796ZM733.03 472V421.818H746.294V430.672H746.882C747.927 427.732 749.67 425.412 752.109 423.713C754.549 422.014 757.467 421.165 760.865 421.165C764.306 421.165 767.236 422.025 769.653 423.746C772.071 425.445 773.683 427.753 774.488 430.672H775.011C776.035 427.797 777.886 425.499 780.565 423.778C783.266 422.036 786.457 421.165 790.138 421.165C794.82 421.165 798.621 422.657 801.54 425.641C804.48 428.603 805.95 432.806 805.95 438.251V472H792.065V440.996C792.065 438.208 791.325 436.117 789.844 434.723C788.362 433.329 786.511 432.632 784.29 432.632C781.763 432.632 779.792 433.438 778.376 435.05C776.96 436.64 776.253 438.741 776.253 441.355V472H762.76V440.702C762.76 438.241 762.052 436.28 760.636 434.821C759.242 433.362 757.402 432.632 755.115 432.632C753.568 432.632 752.174 433.024 750.933 433.808C749.713 434.571 748.744 435.649 748.025 437.043C747.307 438.415 746.947 440.027 746.947 441.878V472H733.03ZM845.444 450.634V421.818H859.362V472H845.999V462.885H845.477C844.344 465.825 842.46 468.188 839.825 469.974C837.211 471.76 834.02 472.653 830.252 472.653C826.898 472.653 823.947 471.891 821.399 470.366C818.85 468.842 816.857 466.675 815.42 463.865C814.004 461.055 813.285 457.69 813.264 453.77V421.818H827.181V451.287C827.203 454.249 827.998 456.59 829.566 458.311C831.134 460.032 833.236 460.892 835.872 460.892C837.549 460.892 839.117 460.511 840.576 459.749C842.035 458.964 843.212 457.81 844.105 456.286C845.019 454.761 845.466 452.877 845.444 450.634ZM880.732 442.989V472H866.814V421.818H880.078V430.672H880.666C881.777 427.753 883.639 425.445 886.253 423.746C888.867 422.025 892.036 421.165 895.76 421.165C899.245 421.165 902.283 421.927 904.875 423.452C907.467 424.976 909.482 427.154 910.919 429.986C912.357 432.795 913.076 436.15 913.076 440.048V472H899.158V442.531C899.18 439.46 898.396 437.064 896.806 435.344C895.216 433.601 893.027 432.73 890.239 432.73C888.366 432.73 886.71 433.133 885.273 433.939C883.857 434.745 882.746 435.921 881.941 437.467C881.156 438.992 880.754 440.832 880.732 442.989ZM920.365 472V421.818H934.282V472H920.365ZM927.356 415.349C925.287 415.349 923.512 414.663 922.031 413.291C920.572 411.897 919.842 410.231 919.842 408.293C919.842 406.376 920.572 404.732 922.031 403.359C923.512 401.965 925.287 401.268 927.356 401.268C929.425 401.268 931.189 401.965 932.649 403.359C934.13 404.732 934.87 406.376 934.87 408.293C934.87 410.231 934.13 411.897 932.649 413.291C931.189 414.663 929.425 415.349 927.356 415.349ZM968.443 421.818V432.273H938.223V421.818H968.443ZM945.083 409.795H959.001V456.58C959.001 457.865 959.197 458.866 959.589 459.585C959.981 460.282 960.526 460.772 961.223 461.055C961.941 461.339 962.769 461.48 963.706 461.48C964.359 461.48 965.012 461.426 965.666 461.317C966.319 461.186 966.82 461.088 967.169 461.023L969.358 471.379C968.661 471.597 967.68 471.848 966.417 472.131C965.154 472.436 963.618 472.621 961.811 472.686C958.456 472.817 955.516 472.37 952.99 471.347C950.485 470.323 948.536 468.733 947.142 466.577C945.748 464.42 945.062 461.698 945.083 458.409V409.795ZM982.421 490.818C980.657 490.818 979.002 490.677 977.455 490.393C975.931 490.132 974.667 489.795 973.665 489.381L976.802 478.991C978.435 479.492 979.906 479.765 981.212 479.808C982.541 479.852 983.684 479.547 984.643 478.893C985.623 478.24 986.418 477.129 987.028 475.561L987.844 473.438L969.843 421.818H984.479L994.869 458.67H995.391L1005.88 421.818H1020.61L1001.11 477.423C1000.17 480.124 998.898 482.476 997.286 484.48C995.696 486.506 993.682 488.063 991.242 489.152C988.803 490.263 985.862 490.818 982.421 490.818Z" fill="black"/>
</svg>
